<svg width="104" height="185" viewBox="0 0 104 185" fill="none" xmlns="http://www.w3.org/2000/svg">
<rect x="37" y="149" width="8" height="19" fill="#171612" stroke="#FFCF0D" stroke-width="2"/>
<rect x="55" y="149" width="8" height="19" fill="#171612" stroke="#FFCF0D" stroke-width="2"/>
<rect x="37" y="33" width="8" height="19" fill="#171612" stroke="#FFCF0D" stroke-width="2"/>
<rect x="55" y="33" width="8" height="19" fill="#171612" stroke="#FFCF0D" stroke-width="2"/>
<mask id="path-5-outside-1_1_32" maskUnits="userSpaceOnUse" x="1" y="47" width="103" height="105" fill="black">
<rect fill="white" x="1" y="47" width="103" height="105"/>
<path d="M100.48 132.64L90.88 138.528C78.6773 145.696 65.7067 149.28 51.968 149.28C42.9227 149.28 34.7307 147.061 27.392 142.624C20.0533 138.187 14.2933 132.128 10.112 124.448C5.93067 116.768 3.84 108.277 3.84 98.976C3.84 89.248 6.144 80.6293 10.752 73.12C15.36 65.5253 21.5467 59.6373 29.312 55.456C37.1627 51.2747 45.7387 49.184 55.04 49.184C61.7813 49.184 67.84 50.336 73.216 52.64C78.6773 54.8587 84.0533 58.016 89.344 62.112C89.4293 62.1973 89.6 62.24 89.856 62.24C90.2827 62.24 90.7947 62.0693 91.392 61.728C92.0747 61.3013 92.5867 60.9173 92.928 60.576L94.592 62.368L77.568 79.264L75.776 77.6C76.288 77.088 76.672 76.5333 76.928 75.936C77.2693 75.2533 77.2693 74.7413 76.928 74.4C70.016 68.3413 62.7627 65.312 55.168 65.312C49.1947 65.312 43.648 66.6773 38.528 69.408C33.408 72.1387 29.312 76.064 26.24 81.184C23.2533 86.2187 21.76 92.1493 21.76 98.976C21.76 105.205 23.04 110.88 25.6 116C28.16 121.035 31.744 125.045 36.352 128.032C40.96 131.019 46.208 132.512 52.096 132.512C62.08 132.512 70.784 130.165 78.208 125.472V106.784H55.04C54.6133 106.784 54.272 107.083 54.016 107.68C53.76 108.277 53.632 108.875 53.632 109.472H51.2V88.992H53.632C53.632 89.5893 53.76 90.1867 54.016 90.784C54.272 91.3813 54.6133 91.68 55.04 91.68H97.536V94.112C96.9387 94.112 96.2987 94.24 95.616 94.496C95.0187 94.752 94.72 95.0933 94.72 95.52V131.104C94.72 131.531 95.0613 131.744 95.744 131.744C96.768 131.744 97.92 131.36 99.2 130.592L100.48 132.64Z"/>
</mask>
<path d="M100.48 132.64L90.88 138.528C78.6773 145.696 65.7067 149.28 51.968 149.28C42.9227 149.28 34.7307 147.061 27.392 142.624C20.0533 138.187 14.2933 132.128 10.112 124.448C5.93067 116.768 3.84 108.277 3.84 98.976C3.84 89.248 6.144 80.6293 10.752 73.12C15.36 65.5253 21.5467 59.6373 29.312 55.456C37.1627 51.2747 45.7387 49.184 55.04 49.184C61.7813 49.184 67.84 50.336 73.216 52.64C78.6773 54.8587 84.0533 58.016 89.344 62.112C89.4293 62.1973 89.6 62.24 89.856 62.24C90.2827 62.24 90.7947 62.0693 91.392 61.728C92.0747 61.3013 92.5867 60.9173 92.928 60.576L94.592 62.368L77.568 79.264L75.776 77.6C76.288 77.088 76.672 76.5333 76.928 75.936C77.2693 75.2533 77.2693 74.7413 76.928 74.4C70.016 68.3413 62.7627 65.312 55.168 65.312C49.1947 65.312 43.648 66.6773 38.528 69.408C33.408 72.1387 29.312 76.064 26.24 81.184C23.2533 86.2187 21.76 92.1493 21.76 98.976C21.76 105.205 23.04 110.88 25.6 116C28.16 121.035 31.744 125.045 36.352 128.032C40.96 131.019 46.208 132.512 52.096 132.512C62.08 132.512 70.784 130.165 78.208 125.472V106.784H55.04C54.6133 106.784 54.272 107.083 54.016 107.68C53.76 108.277 53.632 108.875 53.632 109.472H51.2V88.992H53.632C53.632 89.5893 53.76 90.1867 54.016 90.784C54.272 91.3813 54.6133 91.68 55.04 91.68H97.536V94.112C96.9387 94.112 96.2987 94.24 95.616 94.496C95.0187 94.752 94.72 95.0933 94.72 95.52V131.104C94.72 131.531 95.0613 131.744 95.744 131.744C96.768 131.744 97.92 131.36 99.2 130.592L100.48 132.64Z" fill="#171612"/>
<path d="M100.48 132.64L101.526 134.345L103.245 133.29L102.176 131.58L100.48 132.64ZM90.88 138.528L91.893 140.252L91.9094 140.243L91.9257 140.233L90.88 138.528ZM27.392 142.624L28.4268 140.913L28.4268 140.913L27.392 142.624ZM10.112 124.448L11.8685 123.492L11.8685 123.492L10.112 124.448ZM10.752 73.12L12.4567 74.166L12.4619 74.1575L10.752 73.12ZM29.312 55.456L28.3718 53.6907L28.3638 53.6951L29.312 55.456ZM73.216 52.64L72.4282 54.4783L72.4456 54.4858L72.4632 54.4929L73.216 52.64ZM89.344 62.112L90.7582 60.6977L90.6686 60.6081L90.5683 60.5306L89.344 62.112ZM91.392 61.728L92.3843 63.4645L92.4185 63.4449L92.452 63.424L91.392 61.728ZM92.928 60.576L94.3936 59.2151L92.9813 57.6942L91.5138 59.1618L92.928 60.576ZM94.592 62.368L96.0009 63.7875L97.374 62.4247L96.0576 61.0071L94.592 62.368ZM77.568 79.264L76.2071 80.7296L77.6141 82.0361L78.9769 80.6835L77.568 79.264ZM75.776 77.6L74.3618 76.1858L72.8942 77.6533L74.4151 79.0656L75.776 77.6ZM76.928 75.936L75.1391 75.0416L75.1129 75.0941L75.0897 75.1482L76.928 75.936ZM76.928 74.4L78.3422 72.9858L78.2957 72.9393L78.2463 72.896L76.928 74.4ZM38.528 69.408L39.4692 71.1727L39.4692 71.1727L38.528 69.408ZM26.24 81.184L24.525 80.155L24.5199 80.1636L26.24 81.184ZM25.6 116L23.8111 116.894L23.8172 116.906L25.6 116ZM36.352 128.032L35.2642 129.71L35.2642 129.71L36.352 128.032ZM78.208 125.472L79.2767 127.163L80.208 126.574V125.472H78.208ZM78.208 106.784H80.208V104.784H78.208V106.784ZM53.632 109.472V111.472H55.632V109.472H53.632ZM51.2 109.472H49.2V111.472H51.2V109.472ZM51.2 88.992V86.992H49.2V88.992H51.2ZM53.632 88.992H55.632V86.992H53.632V88.992ZM97.536 91.68H99.536V89.68H97.536V91.68ZM97.536 94.112V96.112H99.536V94.112H97.536ZM95.616 94.496L94.9138 92.6233L94.8706 92.6395L94.8282 92.6577L95.616 94.496ZM99.2 130.592L100.896 129.532L99.8551 127.867L98.171 128.877L99.2 130.592ZM99.4343 130.935L89.8343 136.823L91.9257 140.233L101.526 134.345L99.4343 130.935ZM89.867 136.804C77.9618 143.797 65.3394 147.28 51.968 147.28V151.28C66.0739 151.28 79.3929 147.595 91.893 140.252L89.867 136.804ZM51.968 147.28C43.2666 147.28 35.436 145.151 28.4268 140.913L26.3572 144.335C34.0254 148.972 42.5787 151.28 51.968 151.28V147.28ZM28.4268 140.913C21.3976 136.662 15.8839 130.867 11.8685 123.492L8.35546 125.404C12.7027 133.389 18.7091 139.711 26.3572 144.335L28.4268 140.913ZM11.8685 123.492C7.85714 116.124 5.84 107.965 5.84 98.976H1.84C1.84 108.589 4.00419 117.412 8.35546 125.404L11.8685 123.492ZM5.84 98.976C5.84 89.5776 8.06152 81.3285 12.4566 74.166L9.04736 72.074C4.22648 79.9302 1.84 88.9184 1.84 98.976H5.84ZM12.4619 74.1575C16.8864 66.8652 22.8111 61.228 30.2602 57.2169L28.3638 53.6951C20.2823 58.0467 13.8336 64.1855 9.04212 72.0825L12.4619 74.1575ZM30.2522 57.2212C37.8001 53.2012 46.0511 51.184 55.04 51.184V47.184C45.4263 47.184 36.5253 49.3482 28.3718 53.6908L30.2522 57.2212ZM55.04 51.184C61.5515 51.184 67.3362 52.296 72.4282 54.4783L74.0038 50.8017C68.3438 48.376 62.0112 47.184 55.04 47.184V51.184ZM72.4632 54.4929C77.7348 56.6345 82.954 59.6942 88.1197 63.6934L90.5683 60.5306C85.1527 56.3378 79.6199 53.0828 73.9688 50.7871L72.4632 54.4929ZM87.9298 63.5263C88.3202 63.9166 88.7651 64.0768 89.0509 64.1483C89.3489 64.2228 89.6315 64.24 89.856 64.24V60.24C89.8245 60.24 89.8938 60.2359 90.0211 60.2677C90.1362 60.2965 90.4531 60.3927 90.7582 60.6977L87.9298 63.5263ZM89.856 64.24C90.7821 64.24 91.651 63.8835 92.3843 63.4645L90.3997 59.9915C90.1859 60.1137 90.03 60.1805 89.9275 60.2146C89.824 60.2491 89.8061 60.24 89.856 60.24V64.24ZM92.452 63.424C93.1901 62.9627 93.8466 62.4859 94.3422 61.9902L91.5138 59.1618C91.3268 59.3488 90.9593 59.64 90.332 60.032L92.452 63.424ZM91.4624 61.9369L93.1264 63.7289L96.0576 61.0071L94.3936 59.2151L91.4624 61.9369ZM93.1831 60.9485L76.1591 77.8445L78.9769 80.6835L96.0009 63.7875L93.1831 60.9485ZM78.9289 77.7984L77.1369 76.1344L74.4151 79.0656L76.2071 80.7296L78.9289 77.7984ZM77.1902 79.0142C77.8616 78.3428 78.3992 77.5803 78.7663 76.7238L75.0897 75.1482C74.9448 75.4864 74.7144 75.8332 74.3618 76.1858L77.1902 79.0142ZM78.7169 76.8304C79.1814 75.9014 79.6229 74.2665 78.3422 72.9858L75.5138 75.8142C75.4174 75.7179 75.326 75.5882 75.263 75.4308C75.201 75.2757 75.184 75.1374 75.184 75.04C75.184 74.8707 75.2335 74.8529 75.1391 75.0416L78.7169 76.8304ZM78.2463 72.896C71.0498 66.588 63.3448 63.312 55.168 63.312V67.312C62.1806 67.312 68.9822 70.0947 75.6097 75.904L78.2463 72.896ZM55.168 63.312C48.8764 63.312 43.0052 64.7535 37.5868 67.6433L39.4692 71.1727C44.2908 68.6012 49.5129 67.312 55.168 67.312V63.312ZM37.5868 67.6433C32.1374 70.5497 27.7778 74.7336 24.525 80.155L27.955 82.213C30.8462 77.3944 34.6786 73.7277 39.4692 71.1727L37.5868 67.6433ZM24.5199 80.1636C21.3215 85.5552 19.76 91.8506 19.76 98.976H23.76C23.76 92.448 25.1852 86.8821 27.9601 82.2044L24.5199 80.1636ZM19.76 98.976C19.76 105.488 21.1003 111.473 23.8111 116.894L27.3889 115.106C24.9797 110.287 23.76 104.923 23.76 98.976H19.76ZM23.8172 116.906C26.5321 122.246 30.3519 126.526 35.2642 129.71L37.4398 126.354C33.1361 123.564 29.7879 119.824 27.3828 115.094L23.8172 116.906ZM35.2642 129.71C40.2198 132.922 45.8511 134.512 52.096 134.512V130.512C46.5649 130.512 41.7002 129.115 37.4398 126.354L35.2642 129.71ZM52.096 134.512C62.4053 134.512 71.4908 132.085 79.2767 127.163L77.1393 123.781C70.0772 128.246 61.7547 130.512 52.096 130.512V134.512ZM80.208 125.472V106.784H76.208V125.472H80.208ZM78.208 104.784H55.04V108.784H78.208V104.784ZM55.04 104.784C53.4252 104.784 52.5608 105.998 52.1777 106.892L55.8543 108.468C55.9118 108.334 55.9114 108.399 55.781 108.513C55.7089 108.576 55.6024 108.649 55.4609 108.704C55.3176 108.76 55.1723 108.784 55.04 108.784V104.784ZM52.1777 106.892C51.8245 107.716 51.632 108.581 51.632 109.472H55.632C55.632 109.169 55.6955 108.838 55.8543 108.468L52.1777 106.892ZM53.632 107.472H51.2V111.472H53.632V107.472ZM53.2 109.472V88.992H49.2V109.472H53.2ZM51.2 90.992H53.632V86.992H51.2V90.992ZM51.632 88.992C51.632 89.8832 51.8245 90.7476 52.1777 91.5718L55.8543 89.9962C55.6955 89.6257 55.632 89.2954 55.632 88.992H51.632ZM52.1777 91.5718C52.5608 92.4658 53.4252 93.68 55.04 93.68V89.68C55.1723 89.68 55.3176 89.7042 55.4609 89.76C55.6024 89.815 55.7089 89.8878 55.781 89.9508C55.9114 90.0649 55.9118 90.1304 55.8543 89.9962L52.1777 91.5718ZM55.04 93.68H97.536V89.68H55.04V93.68ZM95.536 91.68V94.112H99.536V91.68H95.536ZM97.536 92.112C96.6525 92.112 95.773 92.3011 94.9138 92.6233L96.3183 96.3687C96.8243 96.1789 97.2249 96.112 97.536 96.112V92.112ZM94.8282 92.6577C93.9342 93.0408 92.72 93.9052 92.72 95.52H96.72C96.72 95.6523 96.6957 95.7976 96.64 95.9409C96.585 96.0824 96.5122 96.1889 96.4492 96.261C96.3351 96.3914 96.2696 96.3918 96.4038 96.3343L94.8282 92.6577ZM92.72 95.52V131.104H96.72V95.52H92.72ZM92.72 131.104C92.72 131.957 93.1195 132.782 93.916 133.28C94.5558 133.68 95.2591 133.744 95.744 133.744V129.744C95.5463 129.744 95.7375 129.701 96.036 129.888C96.2142 129.999 96.409 130.181 96.5487 130.443C96.6857 130.7 96.72 130.94 96.72 131.104H92.72ZM95.744 133.744C97.2598 133.744 98.7718 133.181 100.229 132.307L98.171 128.877C97.0682 129.539 96.2762 129.744 95.744 129.744V133.744ZM97.504 131.652L98.784 133.7L102.176 131.58L100.896 129.532L97.504 131.652Z" fill="#FFCF0D" mask="url(#path-5-outside-1_1_32)"/>
<rect x="38" y="47" width="6" height="5" fill="#171612"/>
<rect x="56" y="46" width="6" height="5" fill="#171612"/>
<rect x="56" y="147" width="6" height="5" fill="#171612"/>
<rect x="38" y="147" width="6" height="5" fill="#171612"/>
</svg>
